<svg width="3073" height="1215" xmlns="http://www.w3.org/2000/svg" xmlns:xlink="http://www.w3.org/1999/xlink" xml:space="preserve" overflow="hidden"><g transform="translate(-178 -498)"><rect x="888.5" y="723.5" width="1599" height="507" stroke="#6E757B" stroke-width="4.58333" stroke-miterlimit="8" fill="#FFC000"/><text fill="#3D4044" font-family="Calibri,Calibri_MSFontService,sans-serif" font-weight="400" font-size="83" transform="matrix(1 0 0 1 1463.29 817)">Python Script</text><rect x="1009.5" y="1047.5" width="1358" height="150" stroke="#141517" stroke-width="4.58333" stroke-miterlimit="8" fill="#3D4044"/><text fill="#FFFFFF" font-family="Calibri,Calibri_MSFontService,sans-serif" font-weight="400" font-size="83" transform="matrix(1 0 0 1 1125.23 1150)">Simulation</text><text fill="#FFFFFF" font-family="Calibri,Calibri_MSFontService,sans-serif" font-weight="400" font-size="83" transform="matrix(1 0 0 1 1501.45 1150)">Manager + Python API</text><rect x="645.5" y="1330.5" width="611" height="125" stroke="#003930" stroke-width="4.58333" stroke-miterlimit="8" fill="#008E7B"/><text fill="#FFFFFF" font-family="Calibri,Calibri_MSFontService,sans-serif" font-weight="400" font-size="83" transform="matrix(1 0 0 1 725.24 1420)">Model Server</text><rect x="1382.5" y="1330.5" width="611" height="125" stroke="#003930" stroke-width="4.58333" stroke-miterlimit="8" fill="#008E7B"/><text fill="#FFFFFF" font-family="Calibri,Calibri_MSFontService,sans-serif" font-weight="400" font-size="83" transform="matrix(1 0 0 1 1461.85 1420)">Model Server</text><rect x="2244.5" y="1330.5" width="611" height="125" stroke="#01164F" stroke-width="4.58333" stroke-miterlimit="8" fill="#0841BE"/><text fill="#FFFFFF" font-family="Calibri,Calibri_MSFontService,sans-serif" font-weight="400" font-size="83" transform="matrix(1 0 0 1 2406.66 1420)">DCS Link</text><path d="M1688 1197 1688 1329.76" stroke="#008E7B" stroke-width="8.02083" stroke-miterlimit="8" fill="none" fill-rule="evenodd"/><path d="M1687.61 1197 1687.61 1263.38 951 1263.38 951 1329.76" stroke="#008E7B" stroke-width="8.02083" stroke-miterlimit="8" fill="none" fill-rule="evenodd"/><path d="M0 0 66.3818 0 66.3818 862.327 132.763 862.327" stroke="#008E7B" stroke-width="8.02083" stroke-miterlimit="8" fill="none" fill-rule="evenodd" transform="matrix(1.83697e-16 1 1 -1.83697e-16 1688 1197)"/><rect x="645.5" y="1551.5" width="611" height="125" stroke="#003930" stroke-width="4.58333" stroke-miterlimit="8" fill="#C00000"/><text fill="#FFFFFF" font-family="Calibri,Calibri_MSFontService,sans-serif" font-weight="400" font-size="83" transform="matrix(1 0 0 1 791.836 1641)">LedaFlow</text><path d="M951 1455 951.001 1550.79" stroke="#008E7B" stroke-width="8.02083" stroke-miterlimit="8" fill="none" fill-rule="evenodd"/><path d="M0 0 251.424 0.000360892" stroke="#008E7B" stroke-width="8.02083" stroke-miterlimit="8" fill="none" fill-rule="evenodd" transform="matrix(-1 0 0 1 2244.42 1392)"/><path d="M2.86463 22.9166 2.86467 45.8333-2.8645 45.8333-2.86454 22.9166ZM2.8647 63.0208 2.86474 85.9375-2.86443 85.9375-2.86447 63.0208ZM2.86477 103.125 2.86481 126.042-2.86435 126.042-2.86439 103.125ZM2.86485 143.229 2.86489 166.146-2.86428 166.146-2.86432 143.229ZM-13.7499 27.5 0 0 13.7501 27.5ZM13.7503 169.412 0.000360892 196.912-13.7497 169.412Z" fill="#3D4044" transform="matrix(-1 0 0 1 1688 526)"/><path d="M22.9166-2.86456 45.8333-2.86454 45.8333 2.86463 22.9166 2.86461ZM63.0208-2.86452 85.9375-2.8645 85.9375 2.86467 63.0208 2.86465ZM103.125-2.86448 126.042-2.86446 126.042 2.86471 103.125 2.86468ZM143.229-2.86444 166.146-2.86442 166.146 2.86475 143.229 2.86472ZM183.333-2.8644 206.25-2.86438 206.25 2.86479 183.333 2.86476ZM223.437-2.86436 246.354-2.86434 246.354 2.86482 223.437 2.8648ZM263.542-2.86433 286.458-2.8643 286.458 2.86486 263.542 2.86484ZM303.646-2.86429 326.562-2.86426 326.562 2.8649 303.646 2.86488ZM343.75-2.86425 345.391-2.86424 345.391 2.86492 343.75 2.86492ZM27.5 13.75 0 0 27.5-13.75ZM340.807-13.7497 368.307 0.000360892 340.807 13.7503Z" fill="#3D4044" transform="matrix(-1 0 0 1 3223.31 1392)"/><rect x="180.5" y="1063.5" width="588" height="119" stroke="#6E757B" stroke-width="4.58333" stroke-miterlimit="8" fill="#FFFFFF"/><text fill="#3D4044" font-family="Calibri,Calibri_MSFontService,sans-serif" font-weight="400" font-size="83" transform="matrix(1 0 0 1 263.727 1150)">Sim Explorer</text><path d="M0 0 240.843 0.000360892" stroke="#008E7B" stroke-width="8.02083" stroke-miterlimit="8" fill="none" fill-rule="evenodd" transform="matrix(-1 0 0 1 1008.84 1122)"/></g></svg>